# xmcd
#
# Track frame offsets:
#	183
#	19133
#	31295
#	42070
#	54645
#	63520
#	75483
#	90508
#	107895
#	117008
#	121458
#	133083
#
# Disc length: 1937 seconds
#
# Revision: 0
# Processed by: cddbd v1.5.2PL0 Copyright (c) Steve Scherf et al.
# Submitted via: dBpowerAMP V4.0
#
DISCID=98078f0c
DTITLE=Various Artist - Bartender's Blues - Great Saloon Songs
DYEAR=1990
DGENRE=Country
TTITLE0=Bartender's Blues - George Jones
TTITLE1=A Headache Tomorrow (Or A Heartache Tonight) - Mickey Gilley
TTITLE2=Big Ole Brew - Mel McDaniel
TTITLE3=Tequila Sheila - Bobby Bare
TTITLE4=Drinkin' My Way Back Home - Gene Watson
TTITLE5=Here I Am Drunk Again - Moe Bandy
TTITLE6=I Like Beer - Tom T. Hall
TTITLE7=Whiskey River - Freddy Fender
TTITLE8=Drink It Down, Lady - Rex Allen, Jr.
TTITLE9=Rednecks, White Socks And Blue Ribbon Beer - Johnny Russell
TTITLE10=Wine Me Up - Faron Young
TTITLE11=Don't The Girls All Get Prettier At Closing Time - Mickey Gilley
EXTD=
EXTT0=
EXTT1=
EXTT2=
EXTT3=
EXTT4=
EXTT5=
EXTT6=
EXTT7=
EXTT8=
EXTT9=
EXTT10=
EXTT11=
PLAYORDER=
